<svg xmlns:x="&amp;ns_extend;" xmlns:i="&amp;ns_ai;" xmlns:graph="&amp;ns_graphs;" xmlns="http://www.w3.org/2000/svg" xmlns:xlink="http://www.w3.org/1999/xlink" version="1.1" x="0px" y="0px" viewBox="0 0 313.534 315" style="enable-background:new 0 0 313.534 315;" xml:space="preserve">
      <style type="text/css">.st0{fill:#FFBC80;}	.st1{opacity:0.57;fill:url(#SVGID_1_);}	.st2{opacity:0.57;fill:url(#SVGID_2_);}</style>
    <metadata>
              <sfw>
                      <slices/>
            <sliceSourceBounds bottomLeftOrigin="true" height="315" width="313.534" x="-2.203" y="-282.155"/>
                  </sfw>
          </metadata>
    <g id="color_index_0" fill="#08807b">
              <path d="M80.105,0v84.988c-12.908,7.685-26.732,15.919-40.269,24.009c-10.146,6.061-17.725,12.45-23.394,18.72V0&#9;&#9;H80.105z"/>
        <path d="M39.836,205.898c13.772-7.187,27.531-14.911,40.269-22.334V315H16.443v-90.421&#9;&#9;C22.059,217.785,29.625,211.24,39.836,205.898z"/>
        <path d="M297.091,0v127.718c-5.668-6.271-13.248-12.659-23.394-18.72c-13.536-8.09-27.361-16.325-40.269-24.009V0&#9;&#9;H297.091z"/>
        <path d="M297.091,224.579V315h-63.662V183.565c12.738,7.423,26.497,15.147,40.269,22.334&#9;&#9;C283.909,211.24,291.475,217.785,297.091,224.579z"/>
        <path d="M313.272,189.246v56.528c0-1.951-0.367-23.093-16.181-42.219c-5.616-6.794-13.183-13.34-23.394-18.681&#9;&#9;c-13.772-7.187-27.531-14.911-40.269-22.334c-34.325-20.029-61.28-37.964-61.28-37.964V67.904c0,0,27.544,16.246,61.28,36.302&#9;&#9;c12.908,7.685,26.732,15.906,40.269,23.996c10.146,6.061,17.725,12.463,23.394,18.72c11.848,13.104,15.317,25.685,16.181,33.671&#9;&#9;C313.861,185.947,313.272,189.246,313.272,189.246z"/>
        <path d="M141.385,67.904v56.672c0,0-26.955,17.935-61.28,37.964c-12.738,7.423-26.497,15.147-40.269,22.334&#9;&#9;c-10.211,5.341-17.778,11.887-23.394,18.681C0.628,222.681,0.262,243.823,0.262,245.774v-56.528c0,0-0.589-3.299,0-8.653&#9;&#9;c0.864-7.986,4.333-20.566,16.181-33.671c5.669-6.258,13.248-12.659,23.394-18.72c13.536-8.09,27.361-16.312,40.269-23.996&#9;&#9;C113.841,84.15,141.385,67.904,141.385,67.904z"/>
          </g>
    <g>
              <linearGradient id="SVGID_1_" gradientUnits="userSpaceOnUse" x1="46.0247" y1="124.2313" x2="50.4475" y2="281.2406">
                      <stop offset="0.2721" style="stop-color:#000000"/>
            <stop offset="0.6939" style="stop-color:#000000;stop-opacity:0"/>
                  </linearGradient>
        <linearGradient id="SVGID_2_" gradientUnits="userSpaceOnUse" x1="-5748.7241" y1="124.2313" x2="-5744.3013" y2="281.2406" gradientTransform="matrix(-1 0 0 1 -5481.2148 0)">
                      <stop offset="0.2721" style="stop-color:#000000"/>
            <stop offset="0.6939" style="stop-color:#000000;stop-opacity:0"/>
                  </linearGradient>
        <path class="st1" d="M80.105,183.565V298.75l-63.662-74.171c5.616-6.794,13.183-13.34,23.394-18.681&#9;&#9;C53.608,198.711,67.367,190.987,80.105,183.565z"/>
        <path class="st2" d="M233.429,183.565V298.75l63.662-74.171c-5.616-6.794-13.183-13.34-23.394-18.681&#9;&#9;C259.926,198.711,246.167,190.987,233.429,183.565z"/>
          </g>
  </svg>